<svg xmlns="http://www.w3.org/2000/svg" viewBox="0 0 303.02 303.02"><defs><style>.cls-1{fill:#f9f9f9;stroke:#f9f9f9;stroke-miterlimit:10;}.cls-2{fill:#e6e6ff;}.cls-3{fill:#231f20;}</style></defs><g id="Camada_2" data-name="Camada 2"><g id="Camada_1-2" data-name="Camada 1"><circle class="cls-1" cx="151.51" cy="151.51" r="151"/></g><g id="Camada_4" data-name="Camada 4"><path class="cls-2" d="M112.28,49.73c0,.08-.51.14-1.17.15s-1.12-.07-1-.16A3.86,3.86,0,0,1,112.28,49.73Z"/><path class="cls-2" d="M63.42,57.23l.3,1c.06.22-.48.87-1.2,1.47l-1.3,1.11.16-1.18a4.77,4.77,0,0,1,1-2.13C63.13,56.71,63.27,56.68,63.42,57.23Z"/><path class="cls-2" d="M74.07,55.87a7.69,7.69,0,0,1,.63,1.9c.3,1.52.85,2,3,2.72.93.3,1.57.75,1.69,1.22a1.68,1.68,0,0,0,2.24,1.08,3.11,3.11,0,0,1,2.15.63c1.44.92,2.34.83,2.75-.16s2.44-1.69,3.81-1.32c1.72.44,2.77-.26,4-2.35a5.21,5.21,0,0,1,2.77-2.46,1.42,1.42,0,0,1,1.92,1c.28.87.4.93,1.12.66a13.51,13.51,0,0,0,2.56-1.85c1-.81,1.82-1.57,1.76-1.78s-.48-.34-.94-.35c-1.62,0-1-1.17,1.17-2,1.92-.75,2.87-.76,4.08-.29.9.36,1,.35,1.62,0s.78-.32,2.93.32c1.9.54,2.35.56,2.82.35a5.66,5.66,0,0,1,2-.25c1.19,0,1.37,0,1.09-.23s-.12-.17.56,0,.74.26.39.32c-.73.12,0,.82,1.25,1,1.4.27,6-.34,7.52-.78a3.89,3.89,0,0,1,1.75-.22c.91.12,1,.54.21.89-.6.27-.62.35-.11.5.33.09.62.35.62.56,0,.37,0,.37.95.16s1-.18,1.33,0a1.63,1.63,0,0,0,1.11,0c1.11-.25,1.58,0,.66.32-.43.16-.74.35-.69.41s-.25.24-.64.4-.66.39-.47.66,0,.48-.43.71-.64.41-.58.5.35,0,.91-.36.77-.56.72-.63a3.39,3.39,0,0,1,1.27-1l2.08-1.23a3.2,3.2,0,0,1,1.07-.41,8,8,0,0,0,1.25-.3,12.8,12.8,0,0,1,3.47-.51c.05,0-.36.24-.84.47a8.25,8.25,0,0,1-1.23.62A18.57,18.57,0,0,0,138.86,56c-1.88,1.1-2.15,1.37-1.76,1.53s.57.15,2.16-.36c1.78-.57,2.41-.59,1.55,0-.29.2-.1.17.87-.12,1.51-.42,1.65-.37.95.51l-.49.65h1c2.86,0,4.6.3,6.37,1.51,1,.66,1.34,1.58.52,1.43-.44-.08-.49,0-.62.46a1.8,1.8,0,0,0,.36,1.25c.64.89.46,1.3-.83,2.72a15.36,15.36,0,0,0-2.76,4,18.44,18.44,0,0,0-1.71,3.79c-.31,1-.31,1.59,0,1.62a14.06,14.06,0,0,0,4.42-.67,19.82,19.82,0,0,0,2.55-1.61c1.59-1.14,1.85-1.47,1.34-1.74-.09,0,0-.15.26-.22.47-.13,1.54-1.29,1.36-1.47s.07-.45.3-.84c.52-.89.28-1.22-.44-.61-.38.32-.47.35-.32.09a3.5,3.5,0,0,1,2.2-1c.2,0,.54.47.8,1s.65.88.86.75.2.07,0,.4-.27.66-.22.71,1.8-1,2.82-1.94a4.53,4.53,0,0,1,1.23-.93c.42,0-.06,2.63-.68,3.77a24.72,24.72,0,0,0-1.78,4.2c-.19.75-.64,1.13-.69.58,0-.21-.31.16-.64.84-.42.86-.62,1.1-.68.81s-.09-.39-.38.28l-.93,2.22c-.71,1.69-.59,1.94.37,1.5.58-.26.59-.2,0,.44s-.62.85.41,3.53c.18.45.43.8.56.78.33-.07,1.87-3.58,2.27-5.11l.33-1.28L159,80a8.13,8.13,0,0,0-1.24,1.41c-.41.68-.41.68-.15,0,.15-.39.23-.75.17-.8a2.36,2.36,0,0,1,.31-1c.41-.89.49-.95,2-1.67a29.29,29.29,0,0,0,3.08-1.77c1.19-.8,1.58-1,1.77-.79a.41.41,0,0,1,0,.54c-.13.17-.31.25-.39.17-.24-.21-2.8,1.18-3.35,1.83-.26.31-.4.64-.32.72a19,19,0,0,1-1.31,3.51c-2,4.73-2,4.73-1.68,5.42s.85.46,1.46-.7c.38-.7.39-.7.32-.17a5.85,5.85,0,0,1-.54,1.49,1.35,1.35,0,0,0,.41,1.95c.11.09.06.22-.12.29-.48.18-1.56-.48-1.34-.81.11-.15-.06-.53-.38-.83-.58-.55-.61-.55-1.73.31l-1.14.88.94.74c.72.57,1,.64,1.37.33s.38-.29.16.26.2,1.12,1.95,2.89c2,2,2.19,2.14,2.19,1.43a1.88,1.88,0,0,0-.25-1,2.1,2.1,0,0,1-.22-1.14l0-.9.79.52a5.15,5.15,0,0,1,1.41,2.72,9.43,9.43,0,0,0,1.35,3c.73.8.85,1.52.08.91a.94.94,0,0,0-1,0c-.82.46-1.3,2.25-.69,2.72a.52.52,0,0,1,.18.68c-.15.17.18,1,.71,1.83,1.25,1.92,2,3.55,2,4.1,0,.29.84,1.11,1.88,1.9a12.34,12.34,0,0,0,3.09,1.71,37.19,37.19,0,0,1,5.45,3.15c1.38,1,2.85,1.83,4.32,2.7l-.82.66a2,2,0,0,0-.17,3.34c.48.51.8,1,.71,1.1a4.36,4.36,0,0,1-1,.53c-.92.39-1.35.61.1,1.86a37.11,37.11,0,0,0,3.77,2.73l7.78,4.86c3.55,2.12,6.87,4,9.22,5.36l1.59.94,1.24.68a7,7,0,0,1,1.07.65,29.06,29.06,0,0,0,3.9,2.54l3.6,2.17c1.21.7,2.41,1.4,3.58,2.1,2.36,1.4,4.55,2.86,6.68,4.2s4.13,2.63,5.9,3.88c.89.63,1.72,1.24,2.49,1.84s1.53,1.12,2.2,1.65l3.72,2.9c1.46,1.11,3,2.34,4.47,3.32,3.48,2.42,4.91,3.58,5,4a2.17,2.17,0,0,0,.8,1c.41.31.65.64.53.72s-3-1.83-3.27-2.37a7.68,7.68,0,0,0-2.18-1.37,10,10,0,0,1-2.07-1.2,25.6,25.6,0,0,0-2.56-1.77c-1.36-.87-2.85-1.91-3.3-2.3s-1.6-1.27-2.57-1.94a23.38,23.38,0,0,1-2.07-1.53c-.88-.94-2.72-2.06-3-1.81s-4.06-1.23-5.63-2.44a104.86,104.86,0,0,0-9.68-6.26c-3.71-2.25-7-4.15-7.21-3.83s-.08.55,1.78,2.37a2.84,2.84,0,0,1,.88,1.33c0,.25.59.87,1.32,1.36s2.94,1.84,4.84,3c3.48,2.17,4.19,2.93,3.44,3.66-.26.26-.22.65.12,1.11.56.78.76,1.17.49,1.26s-1-.18-2.15-.8a7.42,7.42,0,0,0-2.82-1c-.94.32,0,1.2,2.91,2.84a44.74,44.74,0,0,1,4.25,2.49c.73.54,2.87,1.84,4.76,2.89s3.78,2,4.1,2.3a31.33,31.33,0,0,0,3.16,1.74,33.39,33.39,0,0,1,4.2,2.54,31.75,31.75,0,0,0,3.5,2.13c1,.51,1.74,1,1.67,1.18s.34.67,1.59,1.27a45.55,45.55,0,0,0,6.15,2.33c4.44,1.44,6.41,2.25,7.6,3.12a27.17,27.17,0,0,0,3.33,1.89c1.56.71,1.45.71-1.55-.07-2.34-.6-3.15-.72-2.9-.36s.24.58.13.66-.37-.1-.58-.4c-.4-.59-1.36-1-4.49-2a4.78,4.78,0,0,0-2.22-.35c-.14.15-.89-.1-1.66-.54a91.38,91.38,0,0,0-8.66-4.41c-1.94-.93-1.3-1.14,1-.32,1.17.42,2.21.62,2.31.44s-.78-.79-1.94-1.36a24.55,24.55,0,0,1-4.68-2.76c-1-.73-4.57-2.7-8.52-4.74s-8.06-4.37-10.36-5.4c-1.74-.78-4.37-2.1-7.49-3.54-1.54-.73-3.21-1.48-4.88-2.29L197,153.75l-4.68-2.33c-1.46-.73-2.74-1.46-3.87-2a40.34,40.34,0,0,0-3.81-1.91c-.77.17-.67,1.13.21,2a43.64,43.64,0,0,0,4,2.79c1.73,1.14,3.16,2.1,3.14,2.38s.62.9,1.37,1.42,2.47,1.54,4.62,2.76l1.69.94,1.89,1,4,2,4.15,2c1.36.65,2.76,1.21,4,1.76,2.57,1.09,4.8,2,6.3,2.54,8,2.74,7.19,2.29,8.5,3.72,1.15,1.2,2.85,2.54,7.88,5.59,1.61,1,3.71,2.34,4.66,3,1.71,1.15,1.73,1.15.26.44-.82-.42-2.11-1.07-2.88-1.43s-2-1-2.68-1.41a87.28,87.28,0,0,0-8.36-4c-4.26-1.92-4.58-2-4.86-1.41s-.12.8,7.25,5.4c1.29.75,1.58,1,1.23,1.21a12.82,12.82,0,0,1-3-1.41c-1.74-1-4.1-2.33-6.69-3.87-3.21-1.88-4.51-2.66-5-2.51s-2.1-.48-4.51-1.59c-4.77-2.18-4.81-2.23-5.06-1.85-.41.6.81,1.46,4.33,3.09a31.19,31.19,0,0,1,5.55,3.26c.55.46,1.08.84,1.47,1.13l.66.48s0,.2-.18.41-.42.23-.7,0a1.7,1.7,0,0,0-1.22-.3c-.85.13-4.14-1.23-4.27-1.73,0-.18-.32-.32-.63-.3-.54,0-.55,0-.6.93s.11.95,3.2,2.07c1.78.65,4.42,1.42,5.78,1.83,2.54.75,3,1.33.62.73-2.61-.64-2.39.52.31,1.69,1.28.56,1.67.85,1.2.89s.27.47,1.9,1.16c2.14.92,2.57,1.13,2.31,1.59s-.67.56-2.67-.18L219.61,184c-2-.75-3.09-1-2.93-.7s-.08.26-.72-.15-1-.5-.88-.1,0,.39-.4,0a9.47,9.47,0,0,0-1.81-1c-1-.49-2.24-1.1-3.59-1.71-3.86-1.73-5.14-2.17-5.94-2-1.15.21-1.65.74-1.42,1.52.13.46.08.49-.4.29a1.85,1.85,0,0,0-1.09,0c-.42.13-.42.29,0,.72s.48.65.39.79-.36.06-.61-.18c-.41-.38-.47-.35-.63.37a3.42,3.42,0,0,0,.48,1.93,3.8,3.8,0,0,1,.58,1.52c0,.22-1.56-.42-3.76-1.58-3.4-1.91-5-2.43-4.41-1.34a3.06,3.06,0,0,0,1,.86c.42.24.74.56.71.72s.34.39.91.83,1.4.94,2.29,1.49c1.8,1.1,4.42,2.77,5.83,3.73A16.5,16.5,0,0,0,207,192a3.77,3.77,0,0,1,1.83,1.13,4.56,4.56,0,0,0,1.82,1.28c.68.25,1,.46.69.46a2.37,2.37,0,0,0-.95.22c-.37.21.84.84,6.09,3.13,1,.38,1.68.78,1.62.89a3.17,3.17,0,0,1-1.42.21c-1,0-2-.42-4.12-1.61-3.77-2.15-10.11-4.34-10.84-3.83a1.77,1.77,0,0,1-.82.27c-.69.06-1,.58-.9,1.56a1.62,1.62,0,0,1-1,1.86,3.08,3.08,0,0,0-1.19,1.51c-.59,1.2-.64,1.23-1.32.92-.39-.18-.81-.15-.95.06s.69.75,3.11,1.65c5,1.72,8,2.82,6.58,2.41-.7-.2-1.36-.22-1.47,0s-1.86-.38-4.3-1.42c-2.27-1-4.19-1.75-4.37-1.61a2,2,0,0,0-.24,1.3c.06,1,.15,1.12,2.86,2.07,1.78.6,2.55,1,2.07,1s0,.29,1.32.7c3.08.94,2.08,1-1.51.11a10,10,0,0,0-4-.5c-.63.2-1.69,0-3.53-.72-2.07-.79-2.68-.9-2.87-.5s-.37.37-.76,0c-.74-.71-1.32-.48-1.44.57-.09.76.14,1,2.29,1.87a7.49,7.49,0,0,0,2.67.81,5.12,5.12,0,0,1,2.15.63,26.69,26.69,0,0,0,3.55,1.17,15.37,15.37,0,0,1,2.12.59c.25.12,2.23.59,4.39,1,1.08.22,2.14.46,3,.67a15.88,15.88,0,0,1,1.68.44c.44.19-.71.24-2.22.16a32.42,32.42,0,0,1-4.43-.58c-.8-.19-2.53-.54-3.83-.77s-3.1-.61-4-.85a9.37,9.37,0,0,0-2.46-.32,7.85,7.85,0,0,1-2.28-.28l-1.41-.38.42.77a32.76,32.76,0,0,0,3.21,3.76c2.14,2.21,3,2.88,3.39,2.69s.47-.15.2.18.16,1,1.31,2.16a21.15,21.15,0,0,1,2.57,3.23c1.16,1.93,1.61,2.11,1.56.84,0-.94,0-.95.3-.49a8.29,8.29,0,0,0,.63.8.53.53,0,0,1,0,.7c-.33.36,1.79,2.76,4.9,5.51,1.3,1.14,2.66,2.56,3.73,3.69a7.33,7.33,0,0,1,1.78,2.31,5.44,5.44,0,0,0,1.61,2.09,6.89,6.89,0,0,1,1.52,1.68,14.2,14.2,0,0,1-3.29-2.78,28.72,28.72,0,0,0-2.9-2.54c-1.33-1.11-4-3.54-6-5.38s-4-3.74-4.65-4.25-1.75-1.54-2.54-2.26c-.94-.84-1.61-1.23-1.88-1.07-.53.29-.11,1.07,1.42,2.61.8.8,1.81,1.88,2.93,3l3.48,3.43c2.28,2.27,4.29,4.29,4.78,4.86a104.67,104.67,0,0,0,9.12,8.8c2.47,2.25,4.6,4,4.62,4.18.1.62-.49.41-1.23-.42-.16-.19-.89-.77-1.93-1.62l-3.76-3.07c-2.81-2.26-5.89-4.65-7.29-5.7-1.22-.95-.67.41.83,1.87,3.73,3.62,7.38,7,8.49,7.93.76.63,1.08,1.13.88,1.39s.26,1,1.27,2,1.86,1.92,2.17,2.28,1.23,1.34,2,2.18,1.26,1.47,1,1.39a47.34,47.34,0,0,1-4.58-4.24l-2.4-2.4-2.21-2.28c-1.42-1.46-2.73-2.79-3.92-4-2.37-2.37-4.3-4.14-5.65-5.37-.39-.34-1.23-1.15-1.86-1.79a8.2,8.2,0,0,0-1.52-1.3c-1-.36.1,1.3,2.16,3.3,1.21,1.17,2,2.11,1.71,2.09a9,9,0,0,1-2.25-1.93,36.81,36.81,0,0,0-2.69-2.61,27,27,0,0,1-2.54-2.46,24.42,24.42,0,0,0-2.56-2.42c-1.54-1.2-1,0,.91,1.87,1,.93,2,2,2.34,2.29s1.14,1.15,1.85,1.83,1.71,1.67,2.25,2.21a19.36,19.36,0,0,0,1.82,1.62,15.75,15.75,0,0,1,1.68,1.54,8.85,8.85,0,0,0,2.21,1.62,19.41,19.41,0,0,1,3.08,2.17c.93.8,2,1.71,2.45,2a36.13,36.13,0,0,1,2.66,2.67c1.06,1.13,2.58,2.62,3.37,3.3,1,.86,1.26,1.26.85,1.32-.56.08-.57.11-.25.62a23.87,23.87,0,0,0,2.39,2.39,19.47,19.47,0,0,1,2.49,2.57,42.9,42.9,0,0,0,3.54,3.84c2.75,2.77,4.59,4.9,3.17,3.71a10.78,10.78,0,0,0-1.33-.85,3.6,3.6,0,0,1-1.17-.92,15.48,15.48,0,0,0-4.27-3.83,8.16,8.16,0,0,1-1.69-1.2c-.21-.42-7.54-6.51-8.72-7.25a45.17,45.17,0,0,1-3.95-3.14,69.62,69.62,0,0,0-9.41-6.74l-2.7-1.74c-.37-.24-2.26-1.79-4.19-3.44l-3-2.57-2.09-1.82c-1.2-1-2.09-1.69-3.23-2.51a32.1,32.1,0,0,1-3-2.47c-.49-.49-1.52-1.42-2.64-2.42s-2.29-2.13-3.13-2.87c-.37-.32-.7-.43-.73-.23-.06.41,2.07,3,4.4,5.06a11.53,11.53,0,0,1,1.81,1.92c.63,1.45,6.62,7.42,15.66,14.58.7.56,1.85,1.62,2.57,2.31a23.37,23.37,0,0,0,2.2,1.87c1.17.79,4.44,3.48,7.42,6s5.71,4.69,5.57,4.8-3.89-2.11-6.05-3.94c-1.23-1-4.31-3.51-6.85-5.5a51.48,51.48,0,0,0-4.68-3.39c-.71-.37-.53.08.82,1.49,1.52,1.53,2.37,2.81,1.7,2.58a7.85,7.85,0,0,1-1.55-1.4c-1.62-1.8-4.18-4.54-6.08-6.44-.87-.87-2.65-2.78-4-4.24s-2.95-3.32-3.73-4l-7-6.52-6.88-6.72c-1.09-1-2.12-2-3.08-3l-2.57-2.62c-1.54-1.56-2.71-2.72-3.3-3.27-1-.91-1.38-1.31-2.88-2.92l-2.37-2.44-5.41-5.72c-4.13-4.37-5.11-5.32-5.68-4.58-.35.45.75,2.14,4.3,5.91a5.78,5.78,0,0,1,1.51,2.26c-.06.54.28,1.28,1.49,2.81.6.76,1.42,1.72,2.53,3s2.54,2.65,4.31,4.44l5.54,5.65,4.88,4.77,7.53,7.51c1.46,1.47,3.08,3,3.58,3.52s.65.76.32.64a27.61,27.61,0,0,1-3.62-2.93l-2.74-2.44-2.31-2.15c-1.13-1-2.85-2.64-3.84-3.59-5-4.65-8.61-8.51-11.34-11.1-1.35-1.31-2.46-2.33-3.32-3.08a12.43,12.43,0,0,0-1.81-1.47,4.66,4.66,0,0,1-1.24-1.36,21.59,21.59,0,0,0-2.5-2.81c-1-1-2.42-2.44-3.14-3.24-1.73-1.87-3.07-3.48-4.28-4.68a22.68,22.68,0,0,0-3.1-2.74,24.57,24.57,0,0,1-3.45-3.15c-1.71-1.79-4.18-4.75-8.36-9.7-1.52-1.74-3.59-4.3-5.36-6.39a41.41,41.41,0,0,0-3.4-3.79,3.3,3.3,0,0,1-.82-1.08c-.59-.94-3.21-4.19-6.5-7.95a80.2,80.2,0,0,1-5.9-7.68c-2.13-3.09-4.13-6.17-5.06-7.84a17.39,17.39,0,0,0-1.33-1.67c-.63-.77-1.43-1.69-2.24-2.56A23.52,23.52,0,0,1,92.57,140c-.54-1.14-1.14-2.34-1.33-2.67a6.15,6.15,0,0,1-.51-2,4.12,4.12,0,0,0-.77-2.06c-.35-.38-.6-.83-.55-1a2.24,2.24,0,0,0-.48-1.13,3.74,3.74,0,0,1-.6-1.48,4.75,4.75,0,0,0-1.37-2c-1.43-1.42-1.74-1.88-3-5.44-.9-2.78-2.44-5.25-3.74-6-1.06-.59-3.11-.18-3.19.65,0,.31-.21.27-.55-.13a1.73,1.73,0,0,1,.69-2.54c.37-.13.75-.15.84,0a.37.37,0,0,0,.47,0c.63-.44-.24-2.38-2-4.49-1-1.23-1.64-2.31-1.49-2.42.53-.36-.09-2.8-1-4.14-.78-1.11-.88-1.53-.5-2.11.27-.4.38-.88.26-1.06-.33-.49.43-.81,1-.42a9.76,9.76,0,0,0,1.17.65c.57.26.58.23.07-.22-2-1.85-2.6-2.74-2.18-3.17s2.27.08,2.78.83a.46.46,0,0,0,.59.21c.17-.1-.21-1-.84-1.91-1.25-1.92-4.3-4.25-5.16-3.83-.48.24,0,1.09,2.23,3.23.85.8-2.76-1-5.43-3.07a9.74,9.74,0,0,1-2.26-2.15,24.37,24.37,0,0,1-2.26-3.91c-2.35-4.68-2.9-7.59-2.29-9.92.43-1.65.94-1.8,1.45-.49.71,1.79.87,3.47.34,3.67s-.11,1.6.91,2.79c.45.53.67.53,1.08,0s.64-.26,2.34,2.73a13.48,13.48,0,0,0,2.27,3.24c.48.1,1.19-2.18,1.22-3.79a2.73,2.73,0,0,0-1-2.25c-1.64-1.73-3.08-2-2.39-.31.28.66.1.57-.67-.41a24,24,0,0,1-2.55-5.44c-.58-1.65-.95-2.78-1.26-3.5a2.26,2.26,0,0,0-.88-1.21,1.42,1.42,0,0,1-.74-1.14c.07-1.09.7-1.07,1,0a5.22,5.22,0,0,0,.74,1.42c.37.43.49.4.8-.2a1.89,1.89,0,0,0,.15-1.3,20.85,20.85,0,0,1-.47-4.12,24.92,24.92,0,0,1,.19-4.57,4.62,4.62,0,0,1,1.31-2.63c.82-.6,1.09-.55,2.37.28a6.57,6.57,0,0,0,1.66.87c.7-.15,2.27-1.83,3-3.13C73.11,55.26,73.53,55.06,74.07,55.87Z"/><path class="cls-2" d="M65.35,78.21c.07.19.22.32.31.28s.2-.26.25-.51-.09-.37-.31-.28A.39.39,0,0,0,65.35,78.21Z"/><path class="cls-2" d="M65,86.72c2.12,3.59,3.43,5.06,3.87,4.83.59-.31.13-1.1-1.91-3.7a15.52,15.52,0,0,1-2.2-3.47c-.15-.82-.84-1.5-1.33-1.29C63.19,83.21,63.78,84.6,65,86.72Z"/><path class="cls-2" d="M71.93,90.86a9.69,9.69,0,0,0,1.9,1.86c.61.33.54.19-.28-.83-1.42-1.77-2.32-2.68-2.56-2.57S71.3,90.08,71.93,90.86Z"/><path class="cls-2" d="M154.63,84.79a1.94,1.94,0,0,1-.93,1.13c-.4.2-.26.21.37,0,1.11-.32,1.93-1,1.59-1.35a1,1,0,0,1-.25-.57C155.35,83.47,154.93,83.88,154.63,84.79Z"/><path class="cls-2" d="M153.25,88.26c.11.23.37.18.82-.15.75-.54.94-1.06.39-1.06S153.08,87.88,153.25,88.26Z"/><path class="cls-2" d="M155.73,87c-.21.55-.14.74.23.66.57-.12,1-1.19.68-1.54S156.07,86.08,155.73,87Z"/><path class="cls-2" d="M201.08,178.79c.26.29.53.35.67.15s-.08-.49-.45-.66C200.51,177.93,200.44,178.09,201.08,178.79Z"/><path class="cls-2" d="M209.72,174.44c.21,0,.14-.16-.15-.29s-.46-.1-.37.06A.51.51,0,0,0,209.72,174.44Z"/><path class="cls-2" d="M204.62,235.27c.48.06-3.16-3.33-3.74-3.49-.21-.06.44.69,1.47,1.67A10.71,10.71,0,0,0,204.62,235.27Z"/><path class="cls-2" d="M60.44,66.62A1.89,1.89,0,0,1,60,68a4.53,4.53,0,0,0-.69,2.09c-.05.9-.21,1.16-.52.91-.54-.46-1.08.55-1.41,2.8s-.67.48-.4-2.08c.23-2.14,1.13-4.34,1.35-3.53.05.18.34-.18.64-.8C59.6,66.07,60.2,65.79,60.44,66.62Z"/><path class="cls-2" d="M136.27,54c.43,0,.09.31-.81.69a2,2,0,0,1-1.51.27c-1.36-.18-.92-.67,1-.86A12,12,0,0,1,136.27,54Z"/><path class="cls-2" d="M69.67,86.39c.18.35.13.47-.12.28a.61.61,0,0,1-.29-.59C69.33,85.92,69.51,86.06,69.67,86.39Z"/><path class="cls-2" d="M63.48,101.78c.29.21.85.58,1.26.83,1.06.63,1.35,1.2.8,1.53-.27.16-.81,0-1.22-.39s-1-1-1.44-1.28C62.07,101.79,62.63,101.16,63.48,101.78Z"/><path class="cls-2" d="M70.93,98.89c.29.44.3.64,0,.43a1.5,1.5,0,0,1-.52-.81C70.43,98.28,70.65,98.45,70.93,98.89Z"/><path class="cls-2" d="M67.06,102.85c.22.08.23.24,0,.36a.41.41,0,0,1-.55,0c-.11-.15-.12-.32,0-.37A.88.88,0,0,1,67.06,102.85Z"/><path class="cls-2" d="M72.52,106.23a4.48,4.48,0,0,0,.94.74c.47.29.54.43.2.41-.72,0-2-1-1.67-1.27A.41.41,0,0,1,72.52,106.23Z"/><path class="cls-2" d="M76,110.34c.76.49.63.71-.36.73s-1.08-.12-.59-.67A.69.69,0,0,1,76,110.34Z"/><path class="cls-2" d="M75.42,114.34c.11.13,0,.27-.25.32s-.49,0-.54,0,.08-.19.26-.32A.42.42,0,0,1,75.42,114.34Z"/><path class="cls-2" d="M152.09,67.89c.08.07,0,.39-.11.71s-.32.51-.41.44,0-.4.11-.72S152,67.81,152.09,67.89Z"/><path class="cls-2" d="M165.61,69.67a14,14,0,0,1-2.44,4.52c-.22.14,0-.5.46-1.42a14.32,14.32,0,0,0,1-2.23,2.57,2.57,0,0,1,.61-1.11C165.71,68.89,165.72,68.9,165.61,69.67Z"/><path class="cls-2" d="M161.13,73.77c.2.21.3.42.23.47a5.1,5.1,0,0,0-.59.54c-.66.64-1,.18-.43-.68C160.76,73.42,160.78,73.41,161.13,73.77Z"/><path class="cls-2" d="M86.91,128.29c.2.25.17.36-.09.27s-.38-.26-.33-.41S86.72,128.06,86.91,128.29Z"/><path class="cls-2" d="M157.64,79.35c.2.19.08.44-.37.75s-.73.4-.81.32.08-.41.37-.74C157.26,79.16,157.38,79.11,157.64,79.35Z"/><path class="cls-2" d="M89.41,135c.21.08.41.67.46,1.32.09,1.06.08,1.11-.38.66C88.48,135.89,88.44,134.6,89.41,135Z"/><path class="cls-2" d="M161.93,82.48c.12.22.11.45,0,.52a4.69,4.69,0,0,0-.59.36c-.23.17-.32.08-.29-.28C161.1,82.36,161.66,82,161.93,82.48Z"/><path class="cls-2" d="M171.78,77.83c.12.11,0,.31-.22.44-.7.36-1.11.15-.53-.27C171.32,77.79,171.66,77.72,171.78,77.83Z"/><path class="cls-2" d="M91.7,141.5c.22.25.19.35-.07.28s-.4-.25-.36-.4S91.5,141.29,91.7,141.5Z"/><path class="cls-2" d="M165.7,100.62c.27.22.29.36.05.3a.7.7,0,0,1-.49-.41C165.24,100.35,165.43,100.4,165.7,100.62Z"/><path class="cls-2" d="M179.89,117a.7.7,0,0,1-.13.42.25.25,0,0,1-.3,0c-.1-.07,0-.26.13-.43S179.89,116.79,179.89,117Z"/><path class="cls-2" d="M190.55,121.34c.57-.09.68,0,.58.58-.18,1-1.24,1.82-1.89,1.42-.28-.17-.4-.44-.27-.59a4.8,4.8,0,0,0,.56-.79A1.5,1.5,0,0,1,190.55,121.34Z"/><path class="cls-2" d="M199.77,120.17c.23-.06.4,0,.37.14-.08.37-.57.53-.7.23S199.42,120.26,199.77,120.17Z"/><path class="cls-2" d="M204.3,135c.3.18.34.31.1.29a.66.66,0,0,1-.54-.32C203.8,134.77,204,134.79,204.3,135Z"/><path class="cls-2" d="M153.49,214.52a.6.6,0,0,1,.26.61c0,.23-.31.3-.58.14s-.38-.43-.25-.61A.44.44,0,0,1,153.49,214.52Z"/><path class="cls-2" d="M206.25,179.71c.3.14.37.27.16.3a.55.55,0,0,1-.54-.25C205.79,179.6,206,179.58,206.25,179.71Z"/><path class="cls-2" d="M207.24,180.57c.24.13.24.23,0,.26s-.39-.06-.39-.21S207,180.45,207.24,180.57Z"/><path class="cls-2" d="M199.22,208c.57.25.77.42.43.38a2.22,2.22,0,0,1-1-.45C198.37,207.67,198.65,207.71,199.22,208Z"/><path class="cls-2" d="M204,202.55c.5.21.63.36.3.32a1.66,1.66,0,0,1-.91-.39C203.26,202.3,203.53,202.33,204,202.55Z"/><path class="cls-2" d="M205.78,200.59c.26.13.26.23,0,.27s-.42-.06-.42-.21S205.56,200.47,205.78,200.59Z"/><path class="cls-2" d="M205.45,203.07c.25.13.25.24,0,.27s-.41-.06-.42-.21S205.22,203,205.45,203.07Z"/><path class="cls-2" d="M204.93,207.31c.5.22.63.37.3.33a1.74,1.74,0,0,1-.91-.4C204.15,207.06,204.43,207.09,204.93,207.31Z"/><path class="cls-2" d="M209.42,205.24a20.37,20.37,0,0,0,2.52.75l1.22.26H212a6.41,6.41,0,0,1-2.52-.74l-1.4-.75Z"/><path class="cls-2" d="M230.79,173.47c.29.11.36.24.16.28a.5.5,0,0,1-.52-.21C230.35,173.39,230.51,173.36,230.79,173.47Z"/><path class="cls-2" d="M234.56,175.33c.29.1.36.22.16.27a.53.53,0,0,1-.53-.19C234.11,175.26,234.27,175.22,234.56,175.33Z"/><path class="cls-2" d="M231.36,180.34a1.06,1.06,0,0,1,.81,0c.52.23.52.24-.27.32S230.88,180.66,231.36,180.34Z"/><path class="cls-2" d="M233.39,181.26c.24.11.25.21,0,.27s-.39,0-.39-.18S233.18,181.17,233.39,181.26Z"/><path class="cls-2" d="M243.38,175.25a6.42,6.42,0,0,1,1.69,1.21c.35.41.15.41-.75-.11C242.59,175.36,241.78,174.41,243.38,175.25Z"/><path class="cls-2" d="M238.76,185.41c.35.14.42.26.17.28a.76.76,0,0,1-.63-.25C238.21,185.29,238.42,185.28,238.76,185.41Z"/><path class="cls-2" d="M240.78,185.56c.67.13,1.16.33,1.1.45-.2.37-1.21.23-1.78-.24S239.75,185.38,240.78,185.56Z"/><path class="cls-2" d="M243.46,182.77a2.75,2.75,0,0,1,1,.67l.38.46-.53-.18a3.3,3.3,0,0,1-1-.67l-.5-.48Z"/><path class="cls-2" d="M244.22,186.35l3.44.88c1.13.27,1.21.34.47.43a11.94,11.94,0,0,1-3.44-.88l-2.57-1Z"/><path class="cls-2" d="M242.49,187c.18.05.2.35,0,.64s-.43.5-.61.44-.2-.35,0-.65S242.32,187,242.49,187Z"/><path class="cls-2" d="M216,239.67c.28.12.29.22,0,.27s-.43-.05-.45-.2S215.7,239.56,216,239.67Z"/><path class="cls-2" d="M248.59,176.39c.24.09.24.19,0,.25s-.38,0-.38-.15S248.38,176.3,248.59,176.39Z"/><path class="cls-2" d="M209.75,254a23,23,0,0,1,2.34,1.93c.79.72,2.43,2,3.64,2.93a15.62,15.62,0,0,1,2.51,2.17,34.28,34.28,0,0,0,3.27,3.2c3.12,2.78,4.18,3.77,3.88,4a18,18,0,0,1-3.16-2.35c-2.68-2.33-3.34-2.81-4.88-3.49-.41-.19-.4-.26.07-.47s.25-.29-.56-.39-.91-.19-.46-.29.32-.42-1-1.41a46.91,46.91,0,0,1-5.81-5.56l-.78-.85Z"/><path class="cls-2" d="M245.34,184.21c.29.1.37.22.17.27a.51.51,0,0,1-.53-.18C244.88,184.16,245,184.11,245.34,184.21Z"/><path class="cls-2" d="M250.62,177.15c.92.3,1.24.47.71.39a6.25,6.25,0,0,1-1.68-.54C249.26,176.78,249.7,176.85,250.62,177.15Z"/><path class="cls-2" d="M246.15,184.86c.24.1.24.2,0,.26s-.38,0-.39-.16S245.93,184.77,246.15,184.86Z"/><path class="cls-2" d="M212.32,254.29c.28.12.3.23,0,.28s-.44-.06-.47-.21S212.06,254.18,212.32,254.29Z"/><path class="cls-2" d="M247.09,193.36c1.78.6,2.49.83,1.5.63a23.35,23.35,0,0,1-3.25-1.07C244.51,192.56,245.3,192.76,247.09,193.36Z"/><path class="cls-2" d="M219.42,242.24a2,2,0,0,1,.71.61c.22.3.21.43,0,.35a1.68,1.68,0,0,1-.71-.6C219.18,242.29,219.19,242.15,219.42,242.24Z"/><path class="cls-2" d="M246.16,193.73c.19.06.2.25,0,.43s-.4.29-.52.25-.12-.23,0-.43A.45.45,0,0,1,246.16,193.73Z"/><path class="cls-2" d="M222.26,244.44c.28.11.3.22.05.27s-.44,0-.46-.19S222,244.34,222.26,244.44Z"/><path class="cls-2" d="M256,176.64a.55.55,0,0,1,.4.55c-.07.51-.55.36-.73-.24C255.59,176.59,255.65,176.53,256,176.64Z"/><path class="cls-2" d="M254.52,190.21a.72.72,0,0,1,0,.45.26.26,0,0,1-.3.1c-.12,0-.13-.24,0-.45S254.46,190.05,254.52,190.21Z"/><path class="cls-2" d="M232.64,269.13c.84.54,1.93,2,1.33,1.83a5.2,5.2,0,0,1-1.24-1.23C232,268.77,232,268.7,232.64,269.13Z"/><path class="cls-2" d="M237.38,261a.35.35,0,0,1,.22.49.45.45,0,0,1-.53.26.36.36,0,0,1-.23-.49A.46.46,0,0,1,237.38,261Z"/><path class="cls-2" d="M238.37,262.3a6.43,6.43,0,0,0,1.1.6.37.37,0,0,1,.18.52c-.21.51-1.82-.43-2-1.14C237.64,262,237.84,262,238.37,262.3Z"/></g><g id="Camada_3" data-name="Camada 3"><path class="cls-3" d="M133.65,197.09c.87-1.06,1.6-1.53,2.68-1.41,3.26.37,6.47-.05,9.68.55a3,3,0,0,0,1.37-.25,2.83,2.83,0,0,1,3.08.35,2.49,2.49,0,0,0,1.57.33,63.25,63.25,0,0,0,7.4-.85,11.14,11.14,0,0,1,2.55-.07,4.71,4.71,0,0,0,2.79-.67,5.76,5.76,0,0,0,2.36-2.74,6.77,6.77,0,0,0,.46-3.07c-.06-.9-.19-1.61-.19-2.23a9.62,9.62,0,0,0-.16-1.56c-.08-.47-.2-.94-.3-1.42a11.37,11.37,0,0,1-.36-3,9.64,9.64,0,0,0,.06-2.15,11.26,11.26,0,0,0-.8-2,13.89,13.89,0,0,1-1.37-5.78,6.36,6.36,0,0,1,1.59-3.39c1.75-2.22,3.53-4,4.87-5.54.7-.77,1.21-1.5,1.78-2.23.29-.35.52-.76.8-1.13s.53-.75.77-1.15a36.72,36.72,0,0,0,5.52-13.78,63,63,0,0,0,.36-12.59,23,23,0,0,0-.33-3.43,8.07,8.07,0,0,0-.33-1.21,9.55,9.55,0,0,0-.48-1.11,13.57,13.57,0,0,0-4.57-4.49,53.24,53.24,0,0,0-6.16-3.48,58.53,58.53,0,0,0-7.1-3,39.35,39.35,0,0,0-11.81-2,31.76,31.76,0,0,0-4.88.32,27.89,27.89,0,0,0-4.73,1,32.22,32.22,0,0,0-8.7,4.25,35,35,0,0,0-13.25,17.7c-2.46,7.46-1.29,15.95,2.33,22.84a31.92,31.92,0,0,0,5,7.11c1.93,2.11,4.22,3.89,6.52,6a37.37,37.37,0,0,1,3.46,3.53,12.71,12.71,0,0,1,2.51,4.65c.4,1.4,1.3,2.86,1.89,4.46s-.12,2.65-1.41,3.72a10.72,10.72,0,0,0-2.77-6.37,15.25,15.25,0,0,0-3.11-2.82c-.66-.43-1.44-.67-2.12-1.06a14.42,14.42,0,0,1-2.59-1.66c-1.73-1.6-3.72-3.27-5.61-5.36a45.58,45.58,0,0,1-5.09-6.65,44,44,0,0,1-6.75-17.66,37.38,37.38,0,0,1,.24-11.93,32.48,32.48,0,0,1,4.45-11.25,43.88,43.88,0,0,1,11.62-12.24,40.87,40.87,0,0,1,7.44-4.12,37.26,37.26,0,0,1,8.15-2.4,49.9,49.9,0,0,1,10.93-.65,63.83,63.83,0,0,1,10.45,1.44,59.86,59.86,0,0,1,5.91,1.66,55.12,55.12,0,0,1,5.78,2.3,28.54,28.54,0,0,1,10.57,8,19.62,19.62,0,0,1,3.19,6.32,26.56,26.56,0,0,1,.83,6.49,102.33,102.33,0,0,1-.46,12.13,61.27,61.27,0,0,1-1.13,7.33,41.5,41.5,0,0,1-2.21,7.2,36.92,36.92,0,0,1-3.61,6.79,36.38,36.38,0,0,1-5,5.95c-2.44,2.32-4.4,4.52-5.22,6.7a15.28,15.28,0,0,0-1,6.78,11.89,11.89,0,0,0,.19,1.49c.05.25.09.49.16.72l.19.82a13,13,0,0,1,.32,3.7,10.45,10.45,0,0,1-.68,3.07,10.15,10.15,0,0,1-1.84,3,10.88,10.88,0,0,1-2.39,2,13.11,13.11,0,0,1-2.22,1.11,16.79,16.79,0,0,1-3.57.92,29.71,29.71,0,0,1-5.12.29,56.16,56.16,0,0,1-9.9-1.2c-3.75-.76-7.45-1.14-11.27-1.55a8,8,0,0,1-1.26-.46"/><path class="cls-3" d="M139.72,198.51c.43.49.63.79.56,1a4.84,4.84,0,0,0-.13,1.13,2.71,2.71,0,0,1-.23,1c0,.09,0,.22.1.32.16.28.2.47-.24.6a.3.3,0,0,0-.21.29,9.45,9.45,0,0,0,.12,1.52.59.59,0,0,1-.15.47c-.25.32-.1.58.16.81s.48.4.47.63c0,.49.58.74.86,1.06s.33.34,1.17.24,1.46-.29,2.05-.41a.68.68,0,0,1,.58.09c.53.37,1.12.59,1.55.87a14.07,14.07,0,0,0,1.84,1.15c.58.25,1.25.3,1.88.55.84.34,1.76.71,2.72,1.16.8.38,1.62,1,2.51,1.4a9.71,9.71,0,0,0,2.14.65,9.15,9.15,0,0,0,3.17,0,3.06,3.06,0,0,0,2.37-2,7.26,7.26,0,0,0,.28-4.06c-.17-1-.57-2-.83-3a3.7,3.7,0,0,1-.35-1.5c0-.23-.27-.39-.56-.51s-.05-.31.38-.64c.55.22,1,.42,1.49.65s.61.37.92.56a5.7,5.7,0,0,1,.6.32c.21.16.44.33.5.53.27.92.36,1.88.56,2.83s.53,2.16.66,3.29a8.87,8.87,0,0,1,.05,2.21,5.56,5.56,0,0,1-1.09,2.76,7.06,7.06,0,0,1-3.75,2.51,11.19,11.19,0,0,1-3.42.33c-.68,0-1.32-.09-1.91-.15s-1.14-.11-1.72-.19a10.74,10.74,0,0,1-4.08-1.59,21.8,21.8,0,0,0-4-1.89,19.36,19.36,0,0,1-2.55-1,10.54,10.54,0,0,1-2.35-1.76c-.91-.93-2.26-1.68-3.14-3a5.36,5.36,0,0,1-1.07-4.29,8.51,8.51,0,0,1,.91-2.23,9.82,9.82,0,0,0,.56-1.24c.13-.44.28-.87.41-1.35,0-.08.1-.12.22-.25"/><path class="cls-3" d="M163.35,133.15c-.17.63-.36,1-.71,1a10.15,10.15,0,0,1-3.24.61.76.76,0,0,0-.45.18.71.71,0,0,1-1.06-.09.64.64,0,0,0-.53-.16c-.85.06-1.69.16-2.53.2a1.39,1.39,0,0,1-.79-.17,1.37,1.37,0,0,0-1.41,0,2.44,2.44,0,0,1-1.28.34,5.85,5.85,0,0,0-2.37.66c-.83.26-.85.28-1.24,1.18-.32.74-.51,1.57-.74,2.24a1.31,1.31,0,0,1-.61.69,6.74,6.74,0,0,0-2.06,2.4,3.21,3.21,0,0,0-.41,1.27,2.19,2.19,0,0,0,.33,1.24,7.25,7.25,0,0,0,2.45,1.95,10.46,10.46,0,0,0,2.3,1c.9.3,1.92.55,3,.82a50.42,50.42,0,0,1,5.78,1.9,18.74,18.74,0,0,1,4.57,2.43,10.22,10.22,0,0,1,3,3.23,6.82,6.82,0,0,1,.83,4.48,5.14,5.14,0,0,1-1.14,2.47,5.19,5.19,0,0,1-2.19,1.45,17.08,17.08,0,0,1-4.42.67,53.68,53.68,0,0,0-8.54,1.46,25.42,25.42,0,0,1-6.64,1.12,6.6,6.6,0,0,1-3.61-.82,5.39,5.39,0,0,0-1.66-.51c-.61-.13-.65-.61-.62-1.27a6.72,6.72,0,0,0,2.59.39,7.92,7.92,0,0,0,1.57-.22c.29-.08.57-.26.84-.35a3.93,3.93,0,0,1,1-.26,19.31,19.31,0,0,0,4.89-.59c1.92-.49,3.86-1.13,5.79-1.68,1.18-.34,2.35-.67,3.54-1,.58-.14,1.2-.27,1.77-.38l1.42-.27a2.76,2.76,0,0,0,1-.33c.09,0,.23-.2.3-.55a3.16,3.16,0,0,0-.87-2.49,6.79,6.79,0,0,0-2-1.52,10.77,10.77,0,0,0-2.55-1,71.11,71.11,0,0,1-7.86-2.08c-.71-.26-1.41-.54-2.11-.84a19.2,19.2,0,0,1-2.07-1.07,14.55,14.55,0,0,1-3.57-3,8.28,8.28,0,0,1-1.52-2.56,6.58,6.58,0,0,1-.35-3.12,8.42,8.42,0,0,1,3.1-5.29,17.75,17.75,0,0,1,7.15-3.75,24.72,24.72,0,0,1,3.44-.58,13.87,13.87,0,0,1,3.22,0c1.07.15,2.13.35,3.19.52a8.63,8.63,0,0,0,3.67-.27,2.07,2.07,0,0,1,.43,0"/><path class="cls-3" d="M149.09,122.23c.6.21.92.38,1,.63.14.73.53,1.49.3,2.19,0,.09.06.21.14.32.21.27.23.5-.19.67a.33.33,0,0,0-.2.33c0,.56,0,1.12,0,1.67a.68.68,0,0,1-.23.49c-.33.29-.26.59-.07.93a1.13,1.13,0,0,1,.23.85c-.18.52.24,1.05.34,1.57s.11.56.88,1,1.36.7,1.92,1.08a.92.92,0,0,1,.39.7,23.85,23.85,0,0,1,.4,3.21c.05,1.37-.16,2.73-.16,4.09,0,1.1.14,2.2.07,3.29a39.23,39.23,0,0,1-.6,4.41c-.25,1.23-.77,2.45-1,3.69a15.68,15.68,0,0,0-.38,3c-.07,1.63,0,3.25,0,4.89,0,1.84,0,3.68-.16,5.54a19.55,19.55,0,0,0,.62,5.59c.3,1.38.8,2.73,1.07,4.1a6.37,6.37,0,0,1,.35,2.12c0,.3.25.59.54.83s0,.44-.43.78c-.54-.44-1-.81-1.46-1.2s-.59-.57-.9-.86-.44-.3-.6-.47a1.79,1.79,0,0,1-.5-.7c-.26-1.16-.4-2.33-.7-3.48s-.79-2.57-1.15-3.86a17.37,17.37,0,0,1-.82-4.78c0-2.29-.08-4.58-.1-6.86,0-1.53-.08-3.05-.06-4.57a20,20,0,0,1,1-5.43,17.12,17.12,0,0,0,.76-5.46c0-1.11-.16-2.22-.2-3.33s-.11-2.23-.1-3.34c0-1.5-.67-3-.89-4.56a8.57,8.57,0,0,1,.08-4.27c.23-.68.51-1.35.79-2a4,4,0,0,0,.09-2.44c0-.07,0-.13.08-.28"/></g></g></svg>