<svg xmlns="http://www.w3.org/2000/svg" viewBox="0 0 680 473.71"><defs><style>.cls-1,.cls-13{fill:none;}.cls-2{fill:#4affdc;}.cls-3{fill:#636363;}.cls-4{fill:#005;}.cls-5{fill:#363a32;opacity:0.09;}.cls-6{fill:#f4f4f4;}.cls-7{fill:#fcdee7;}.cls-8{fill:#fee9ed;}.cls-9{fill:#191919;}.cls-10{fill:#fff;}.cls-11{fill:#605d5e;}.cls-12{fill:#01010a;}.cls-13{stroke:#0c080a;stroke-miterlimit:10;}</style></defs><g id="Camada_2" data-name="Camada 2"><g id="Camada_10" data-name="Camada 10"><line class="cls-1" x1="77" y1="387.64" x2="589" y2="387.64"/><rect y="292.64" width="487" height="77" rx="38.5"/><rect x="193" y="306.64" width="487" height="77" rx="38.5"/><rect class="cls-2" x="34" y="333.73" width="609" height="131.91" rx="60"/><rect class="cls-3" x="233" y="362.64" width="386.72" height="67" rx="33.5"/><circle class="cls-3" cx="118.5" cy="396.14" r="33.5"/></g><g id="Camada_8" data-name="Camada 8"><path class="cls-4" d="M296.19,396.62s7.65-38.25-24-51.37c0,0-30,17.47-35.26,19.3s-4.89,6.61-4.37,7.65c0,0,34.16,75.78,47.28,79.06,0,0,6.71,1.66,10.92-6.56,4.38-10.92-1.09-16.39,0-29.5S296.19,403.17,296.19,396.62Z"/><path class="cls-5" d="M161,183.64s-89,26-120,96S18,394.48,101,399.06,289,298.64,330,274.64s158,41,164,110,38,117.2,82.5,70.6S692,318,626,231.81,362,110.64,314,174.64s-65,24.8-113-6.6S161,183.64,161,183.64Z"/></g><g id="fundo_casa" data-name="fundo casa"><polygon class="cls-6" points="385.07 310.8 313.99 340.14 274.5 311.93 280.14 265.67 356.4 262.64 385.07 310.8"/></g><g id="Camada_9" data-name="Camada 9"><path class="cls-4" d="M351.5,382.14s-6,13-4,21,6,17,2,29-2,20,7,23,52-63,54-70,1-5-5-9-23-14-23-14-16,8-18,8S351.5,382.14,351.5,382.14Z"/></g><g id="tracado"><path class="cls-4" d="M296,92.64s-40.67,11.25-52.5,14.5-27.94,7.43-31,17c-4.09,11.26-15.81,52.32-17,88-2,60-6,63,5,64,35,3.18,49,3,49,3v3l5,3s1-22,1-53-1-41,11-41c11.74,0,49,.59,88,1s51.44-4.44,51,11c-1,35,0,83.5,0,83.5l8-3.5s22.92-2.13,43-3c16.71-.73,31.36,1.26,30-11-2-17.93-11.14-72.61-25-114-7-20.95-14-42-25-46s-28.5-6.3-39-8c-40.17-6.5-44-6-44-6s-3.69,9.13-11,14C336.5,113.14,313.5,123.14,296,92.64Z"/></g><g id="Camada_3" data-name="Camada 3"><path class="cls-7" d="M295.5,88.14s4,26,29,26,31-23,31.5-26,0-60.06,0-60.06l-66-6.44Z"/></g><g id="Camada_4" data-name="Camada 4"><path class="cls-8" d="M293.6,65.2s-6.35-2.06-10,2.69c-2.62,6.75.7,14.41,12,21.08"/><path class="cls-7" d="M293.6,65.2s-6.35-2.06-10,2.69c-2.62,6.75.7,14.41,12,21.08"/><path class="cls-7" d="M355.44,88.85c11.48-6.44,14.95-14,12.46-20.83-3.53-4.82-9.92-2.89-9.92-2.89l-6,2.51s2,14,1,14S355.44,88.85,355.44,88.85Z"/></g><g id="Camada_5" data-name="Camada 5"><path class="cls-9" d="M356.5,16.14S352.69-8.61,301.41,3.19a34.93,34.93,0,0,0-9.24,3.55c-25.71,14.51-10.38,38.81-5.67,45.4,0,0,0,9,1,13,0,0,2-1,6,0,0,0,21-31,56-23,0,0-3.84,10.9-3,17,.57,4.16,4.87,8.21,7,12,1.93,3.42,1.66,6.48,3,11.87,0,0,1.59-6.51,2.3-12.19s8.7-6.68,9.7-.68a61.85,61.85,0,0,0,5-20c1-13.73-2.23-30.81-17-33Z"/></g><g id="notebook"><path class="cls-10" d="M380.5,298.14H275.75l-21.25-12v-58c0-37,0-37,17-37,0,0,84.06-.56,112,0,23,0,22,0,22,16v78.75Z"/><polygon class="cls-11" points="275.75 298.14 282.5 302.14 372.69 302.14 380.5 298.14 275.75 298.14"/></g><g id="calsa"><path class="cls-12" d="M317.18,394.44c-14.53,5.36-23.68,8.7-23.68,8.7s16-31-24-53L249.34,359c-37.57-17.89-90.27-43.17-107.91-52.51-28.5-15.1-26-41.2-21.6-49.06L126,246.64c4.28-7.94,25-24,53-8s140,87,140,87,109.5-50.5,148.5-68.5,54,0,59,9c11,22,11,44-22,56-20.4,9.89-96.23,38.51-151.15,58.93a107.22,107.22,0,0,0-6.85,27.07Z"/></g><g id="Camada_11" data-name="Camada 11"><path class="cls-13" d="M328,66.64s9.5-3.5,16.25,1.25"/><path class="cls-13" d="M319,66.52s-9.41-3.76-16.28.81"/></g></g></svg>